<svg width="20" height="20" viewBox="0 0 20 20" fill="none" xmlns="http://www.w3.org/2000/svg">
<path d="M10.9757 3.33341L15.0007 7.35841V16.6667H5.00065V3.33341H10.9757ZM11.6673 1.66675H5.00065C4.08398 1.66675 3.33398 2.41675 3.33398 3.33341V16.6667C3.33398 17.5834 4.08398 18.3334 5.00065 18.3334H15.0007C15.9173 18.3334 16.6673 17.5834 16.6673 16.6667V6.66675L11.6673 1.66675ZM12.5007 9.16675H9.16732V10.0001H11.6673C12.1257 10.0001 12.5007 10.3751 12.5007 10.8334V13.3334C12.5007 13.7917 12.1257 14.1667 11.6673 14.1667H10.834V15.0001H9.16732V14.1667H7.50065V12.5001H10.834V11.6667H8.33398C7.87565 11.6667 7.50065 11.2917 7.50065 10.8334V8.33341C7.50065 7.87508 7.87565 7.50008 8.33398 7.50008H9.16732V6.66675H10.834V7.50008H12.5007V9.16675Z" fill="#383838"/>
</svg>
