<svg width="100" height="100" viewBox="0 0 100 100" fill="none" xmlns="http://www.w3.org/2000/svg">
<rect width="100" height="100" rx="16" fill="white"/>
<path d="M30.0951 38.8191L28.7306 40.1836C27.1431 41.7711 27.3297 44.3967 29.1258 45.7437V45.7437C30.5359 46.8013 32.4972 46.7137 33.8073 45.5345L46.127 34.4468" stroke="#143651" stroke-width="2.91489" stroke-linecap="round"/>
<path d="M46.127 34.4468L38.8657 41.7081C37.3135 43.2602 37.496 45.8272 39.252 47.1442V47.1442C40.688 48.2213 42.6974 48.0785 43.9667 46.8092L51.9568 38.8191" stroke="#143651" stroke-width="2.91489" stroke-linecap="round"/>
<path d="M51.9568 38.8192L48.4029 42.3731C46.5065 44.2694 46.8972 47.443 49.1969 48.8228V48.8228C50.8189 49.796 52.8951 49.5404 54.2327 48.2028L57.7866 44.6489" stroke="#143651" stroke-width="2.91489" stroke-linecap="round"/>
<path d="M57.7866 44.649L56.5425 46.3077C54.965 48.4111 55.8139 51.4386 58.2551 52.4151V52.4151C59.7392 53.0087 61.4343 52.6608 62.5646 51.5306L70.6536 43.4416C71.7468 42.3483 73.2297 41.7341 74.7758 41.7341H92.7653" stroke="#143651" stroke-width="2.91489" stroke-linecap="round"/>
<path d="M92.7653 15.5L51.9568 15.5" stroke="#143651" stroke-width="2.91489" stroke-linecap="round"/>
<path d="M8.2334 15.5H51.2495C53.5688 15.5 55.793 16.4213 57.433 18.0613L64.9124 25.5407C66.6114 27.2397 66.6114 29.9943 64.9124 31.6934V31.6934C63.3448 33.2609 60.8493 33.3991 59.1183 32.0143L53.4547 27.4834C50.0791 24.783 45.237 24.9542 42.0606 27.8862L31.15 37.9575C29.5346 39.4486 27.417 40.2766 25.2186 40.2766H8.2334" stroke="black" stroke-width="2.91489" stroke-linecap="round"/>
<path d="M25.7228 47.5638V57.0884C24.8653 56.5924 23.8697 56.3085 22.8079 56.3085C19.5882 56.3085 16.9781 58.9186 16.9781 62.1383C16.9781 65.358 19.5882 67.9681 22.8079 67.9681C23.8697 67.9681 24.8653 67.6842 25.7228 67.1882V72.3404C25.7228 73.9503 27.0278 75.2553 28.6377 75.2553H34.6511C34.5312 74.7895 34.4675 74.3011 34.4675 73.7979C34.4675 70.5782 37.0775 67.9681 40.2972 67.9681C43.5169 67.9681 46.127 70.5782 46.127 73.7979C46.127 74.3011 46.0633 74.7895 45.9434 75.2553H50.4994C52.1092 75.2553 53.4143 73.9503 53.4143 72.3404V67.1882C54.2717 67.6842 55.2673 67.9681 56.3292 67.9681C59.5489 67.9681 62.1589 65.358 62.1589 62.1383C62.1589 58.9186 59.5489 56.3085 56.3292 56.3085C55.2673 56.3085 54.2717 56.5924 53.4143 57.0884V53.3936" stroke="black" stroke-width="2.91489" stroke-linecap="round" stroke-linejoin="round"/>
<path d="M57.7866 75.2553H63.6164C63.1204 76.1128 62.8365 77.1083 62.8365 78.1702C62.8365 81.3899 66.2265 84 69.4462 84C72.6659 84 75.9535 81.3899 75.9535 78.1702C75.9535 77.1083 75.6696 76.1128 75.1735 75.2553H79.6482C81.2581 75.2553 82.5631 73.9503 82.5631 72.3404V67.1881C81.7056 67.6842 80.7101 67.9681 79.6482 67.9681C76.4285 67.9681 73.8184 65.358 73.8184 62.1383C73.8184 58.9186 76.4285 56.3085 79.6482 56.3085C80.7101 56.3085 81.7056 56.5924 82.5631 57.0884V50.4787" stroke="#143651" stroke-width="2.91489" stroke-linecap="round" stroke-linejoin="round"/>
</svg>
