<svg width="100" height="100" viewBox="0 0 100 100" fill="none" xmlns="http://www.w3.org/2000/svg">
<rect width="100" height="100" rx="16" fill="white"/>
<path d="M62.5 32H50.5" stroke="#143651" stroke-width="3"/>
<path d="M61 68H49" stroke="#143651" stroke-width="3"/>
<path d="M79 83H49" stroke="#143651" stroke-width="3"/>
<path d="M79 17H49" stroke="#143651" stroke-width="3"/>
<path d="M73 50L37 50" stroke="#143651" stroke-width="3"/>
<path d="M36.8183 24.2094L36.819 24.2101C39.6559 27.0432 44.5 25.0373 44.5 21.0276V17C44.5 14.5142 46.5124 12.5 49 12.5C49.8284 12.5 50.5 13.1716 50.5 14V32C50.5 32.7715 49.8295 33.6026 48.7227 33.8257C41.1795 35.3464 35.5 42.0081 35.5 50C35.5 57.9919 41.1795 64.6536 48.7227 66.1743C49.8295 66.3974 50.5 67.2285 50.5 68V86C50.5 86.8284 49.8284 87.5 49 87.5C46.5124 87.5 44.5 85.4858 44.5 83V78.9724C44.5 74.9626 39.6561 72.9563 36.819 75.7896L36.8183 75.7902L33.9707 78.6375C32.2127 80.3952 29.3654 80.3952 27.6075 78.6375L23.3654 74.3951L23.3652 74.3949C21.6074 72.6377 21.6074 69.7886 23.3652 68.0314L23.3657 68.0309L26.2123 65.1825C29.0533 62.3453 27.0364 57.5 23.0312 57.5H19C16.5124 57.5 14.5 55.4858 14.5 53V47C14.5 44.5142 16.5124 42.5 19 42.5H23.0312C27.0359 42.5 29.0528 37.6559 26.2133 34.8186C26.2133 34.8185 26.2133 34.8185 26.2132 34.8185C26.2129 34.8182 26.2126 34.8178 26.2123 34.8175L23.3657 31.9691L23.3652 31.9686C21.6075 30.2114 21.6074 27.3623 23.3653 25.6047L23.3654 25.6046L27.6074 21.3622C27.6074 21.3621 27.6075 21.3621 27.6076 21.362C29.3656 19.6048 32.2127 19.6048 33.9707 21.3621C33.9707 21.3622 33.9707 21.3622 33.9708 21.3622L36.8183 24.2094Z" fill="white" stroke="#252525" stroke-width="3"/>
<circle cx="76" cy="50" r="4.5" stroke="#143651" stroke-width="3"/>
<circle cx="67" cy="32" r="4.5" stroke="#143651" stroke-width="3"/>
<circle cx="64" cy="68" r="4.5" stroke="#143651" stroke-width="3"/>
<circle cx="82" cy="83" r="4.5" stroke="#143651" stroke-width="3"/>
<circle cx="82" cy="17" r="4.5" stroke="#143651" stroke-width="3"/>
</svg>
