<svg width="197" height="40" viewBox="0 0 197 40" fill="none" xmlns="http://www.w3.org/2000/svg">
<path d="M9.9294 18.0841C14.4331 18.0841 18.0841 14.4331 18.0841 9.9294C18.0841 5.42566 14.4331 1.77466 9.9294 1.77466C5.42566 1.77466 1.77466 5.42566 1.77466 9.9294C1.77466 14.4331 5.42566 18.0841 9.9294 18.0841Z" fill="#143651"/>
<path d="M9.9294 18.0841C14.4331 18.0841 18.0841 14.4331 18.0841 9.9294C18.0841 5.42566 14.4331 1.77466 9.9294 1.77466C5.42566 1.77466 1.77466 5.42566 1.77466 9.9294C1.77466 14.4331 5.42566 18.0841 9.9294 18.0841Z" fill="#143651"/>
<path d="M29.7885 37.9431C34.2923 37.9431 37.9433 34.2921 37.9433 29.7884C37.9433 25.2847 34.2923 21.6337 29.7885 21.6337C25.2848 21.6337 21.6338 25.2847 21.6338 29.7884C21.6338 34.2921 25.2848 37.9431 29.7885 37.9431Z" fill="#143651"/>
<path d="M29.7885 37.9431C34.2923 37.9431 37.9433 34.2921 37.9433 29.7884C37.9433 25.2847 34.2923 21.6337 29.7885 21.6337C25.2848 21.6337 21.6338 25.2847 21.6338 29.7884C21.6338 34.2921 25.2848 37.9431 29.7885 37.9431Z" fill="#143651"/>
<path d="M29.7885 37.9431C34.2923 37.9431 37.9433 34.2921 37.9433 29.7884C37.9433 25.2847 34.2923 21.6337 29.7885 21.6337C25.2848 21.6337 21.6338 25.2847 21.6338 29.7884C21.6338 34.2921 25.2848 37.9431 29.7885 37.9431Z" fill="#143651"/>
<path d="M9.92916 1.77466C5.43619 1.77466 1.77441 5.43643 1.77441 9.9294C1.77441 14.4224 5.43619 18.0841 9.92916 18.0841C14.4221 18.0841 18.0839 14.4224 18.0839 9.9294C18.0727 5.43643 14.4221 1.77466 9.92916 1.77466Z" fill="#143651"/>
<path d="M19.8589 0V9.92947C19.8589 15.4109 15.4109 19.8589 9.92946 19.8589H0V39.7178H19.8589V29.7884C19.8589 24.307 24.307 19.8589 29.7884 19.8589H39.7178V0H19.8589ZM9.92946 37.9431C5.43649 37.9431 1.77472 34.2813 1.77472 29.7884C1.77472 25.2954 5.43649 21.6336 9.92946 21.6336C14.4224 21.6336 18.0842 25.2954 18.0842 29.7884C18.0842 34.2813 14.4224 37.9431 9.92946 37.9431ZM29.7884 18.0842C25.2954 18.0842 21.6336 14.4224 21.6336 9.92947C21.6336 5.4365 25.2954 1.77472 29.7884 1.77472C34.2814 1.77472 37.9431 5.4365 37.9431 9.92947C37.9431 14.4224 34.2814 18.0842 29.7884 18.0842Z" fill="#143651"/>
<path d="M63.9576 26.7893H49.7485V1.46021H53.8484V23.1276H63.9463V26.7893H63.9576Z" fill="#143651"/>
<path d="M80.5253 13.9954V22.431C80.5478 22.9701 80.6938 23.3745 80.9521 23.6329C81.2105 23.8912 81.6148 24.0597 82.154 24.1271L82.0417 27.1935C79.9187 27.1935 78.2788 26.733 77.1219 25.8232C75.145 26.733 73.1681 27.1935 71.1687 27.1935C67.4957 27.1935 65.6536 25.2279 65.6536 21.3077C65.6536 19.4319 66.1478 18.0728 67.1475 17.2416C68.1472 16.3992 69.686 15.8937 71.7528 15.7252L76.5266 15.3209V13.9842C76.5266 12.9958 76.3131 12.3106 75.8751 11.9174C75.4482 11.5243 74.808 11.3221 73.9656 11.3221C72.3818 11.3221 70.4161 11.4232 68.0461 11.6142L66.8667 11.6928L66.7206 8.83977C69.4052 8.19952 71.8763 7.87378 74.134 7.87378C76.3918 7.87378 78.0205 8.35677 79.0202 9.33399C80.0198 10.3337 80.5253 11.8725 80.5253 13.9954ZM72.2358 18.5783C70.5397 18.7243 69.686 19.6566 69.686 21.3527C69.686 23.0488 70.4386 23.9025 71.9437 23.9025C73.1793 23.9025 74.4822 23.7115 75.8638 23.3071L76.5266 23.0825V18.1739L72.2358 18.5783Z" fill="#143651"/>
<path d="M94.2063 7.89629C96.7449 7.89629 98.5758 8.60393 99.699 10.0192C100.822 11.4345 101.384 13.9506 101.384 17.5449C101.384 21.1506 100.721 23.6554 99.3845 25.0707C98.0478 26.486 95.7115 27.1936 92.353 27.1936C91.196 27.1936 89.3539 27.0813 86.8379 26.8566L85.5798 26.7443V0.595215H89.5786V8.98584C91.2859 8.26696 92.8247 7.89629 94.2063 7.89629ZM92.353 23.6104C94.3299 23.6104 95.6329 23.1499 96.2956 22.2289C96.947 21.3078 97.2728 19.7353 97.2728 17.5112C97.2728 15.2985 96.992 13.7371 96.4416 12.8273C95.8912 11.9287 94.9814 11.4794 93.7233 11.4794C92.5439 11.4794 91.3533 11.6592 90.1739 12.0298L89.5786 12.2095V23.4532C90.9377 23.5655 91.8588 23.6104 92.353 23.6104Z" fill="#143651"/>
<path d="M113.099 4.63893C109.965 4.63893 108.404 5.73971 108.404 7.93003C108.404 9.0645 108.775 9.87324 109.516 10.3562C110.257 10.8392 111.886 11.4233 114.413 12.131C116.941 12.8274 118.727 13.6698 119.76 14.647C120.793 15.6242 121.31 17.1519 121.31 19.2523C121.31 21.9144 120.558 23.9025 119.041 25.228C117.525 26.5422 115.458 27.2049 112.852 27.2049C110.752 27.2049 108.438 26.9578 105.899 26.4635L104.563 26.2052L104.967 22.9141C108.292 23.3521 110.83 23.5768 112.582 23.5768C115.638 23.5768 117.165 22.2177 117.165 19.5107C117.165 18.4548 116.817 17.6685 116.132 17.1631C115.447 16.6576 113.885 16.1072 111.47 15.5007C109.056 14.8941 107.258 14.0629 106.068 13.0071C104.888 11.9512 104.293 10.2664 104.293 7.97496C104.293 5.68354 105.034 3.95375 106.528 2.77435C108.022 1.60618 110.089 1.02209 112.717 1.02209C114.616 1.02209 116.862 1.24674 119.445 1.6848L120.737 1.90945L120.4 5.23425C116.974 4.84112 114.537 4.63893 113.099 4.63893Z" fill="#143651"/>
<path d="M138.44 23.4644L139.473 23.3521L139.552 26.3511C136.744 26.9127 134.25 27.2048 132.082 27.2048C129.341 27.2048 127.376 26.4522 126.185 24.9471C124.994 23.4419 124.388 21.0382 124.388 17.7358C124.388 11.1761 127.061 7.89624 132.408 7.89624C137.586 7.89624 140.181 10.7156 140.181 16.3655L139.922 19.2522H128.454C128.477 20.7798 128.814 21.9031 129.454 22.622C130.094 23.3408 131.285 23.7003 133.037 23.7003C134.789 23.7003 136.586 23.6104 138.44 23.4644ZM136.216 16.1408C136.216 14.3212 135.924 13.0407 135.351 12.3106C134.767 11.5805 133.789 11.221 132.408 11.221C131.026 11.221 130.027 11.6029 129.398 12.3667C128.769 13.1306 128.443 14.3886 128.42 16.1408H136.216Z" fill="#143651"/>
<path d="M148.088 26.7892H144.056V8.30061H148.055V9.44632C149.852 8.41294 151.559 7.89624 153.154 7.89624C155.625 7.89624 157.299 8.59265 158.198 9.98547C159.096 11.3783 159.545 13.6809 159.545 16.8822V26.7892H155.547V16.9833C155.547 14.9839 155.333 13.5686 154.895 12.7262C154.468 11.8838 153.581 11.4682 152.256 11.4682C150.998 11.4682 149.784 11.7153 148.628 12.2095L148.077 12.4341V26.7892H148.088Z" fill="#143651"/>
<path d="M177.079 12.1084C174.17 11.7153 172.058 11.5131 170.755 11.5131C169.452 11.5131 168.542 11.6703 168.037 11.9736C167.532 12.2769 167.284 12.7711 167.284 13.4338C167.284 14.0965 167.565 14.5683 168.116 14.8379C168.666 15.1075 169.98 15.422 172.036 15.7814C174.091 16.1408 175.551 16.7025 176.416 17.4663C177.281 18.2301 177.708 19.5892 177.708 21.5324C177.708 23.4756 177.09 24.9134 175.843 25.8232C174.597 26.733 172.777 27.1935 170.385 27.1935C168.879 27.1935 166.981 26.9801 164.69 26.5645L163.544 26.3736L163.69 23.0038C166.644 23.397 168.778 23.5992 170.092 23.5992C171.407 23.5992 172.328 23.4419 172.889 23.1162C173.44 22.7904 173.721 22.2625 173.721 21.5212C173.721 20.7798 173.451 20.2744 172.923 19.9823C172.395 19.7015 171.126 19.387 169.115 19.0613C167.105 18.7243 165.633 18.2076 164.701 17.4887C163.769 16.7699 163.297 15.4669 163.297 13.5686C163.297 11.6703 163.948 10.255 165.24 9.31152C166.532 8.37923 168.194 7.90747 170.216 7.90747C171.8 7.90747 173.732 8.10965 176.023 8.50279L177.169 8.72743L177.079 12.1084Z" fill="#143651"/>
<path d="M194.759 23.4644L195.792 23.3521L195.871 26.3511C193.063 26.9127 190.569 27.2048 188.401 27.2048C185.661 27.2048 183.695 26.4522 182.504 24.9471C181.314 23.4419 180.707 21.0382 180.707 17.7358C180.707 11.1761 183.381 7.89624 188.727 7.89624C193.905 7.89624 196.5 10.7156 196.5 16.3655L196.242 19.2522H184.773C184.796 20.7798 185.133 21.9031 185.773 22.622C186.413 23.3408 187.604 23.7003 189.356 23.7003C191.108 23.7003 192.917 23.6104 194.759 23.4644ZM192.546 16.1408C192.546 14.3212 192.254 13.0407 191.681 12.3106C191.097 11.5805 190.12 11.221 188.738 11.221C187.357 11.221 186.357 11.6029 185.728 12.3667C185.099 13.1306 184.773 14.3886 184.751 16.1408H192.546Z" fill="#143651"/>
<path d="M49.7822 36.8986V31.1476H50.9392L52.5679 36.0112L54.1966 31.1476H55.3535V36.8986H54.7133V31.8328H54.6009L52.9273 36.6964H52.2084L50.5348 31.8328H50.4225V36.8986H49.7822Z" fill="#143651"/>
<path d="M59.588 34.0005V36.1234C59.5992 36.3256 59.7677 36.4491 60.071 36.4941L60.0485 36.9883C59.6104 36.9883 59.2847 36.876 59.06 36.6513C58.5658 36.876 58.0603 36.9883 57.5661 36.9883C57.1842 36.9883 56.8922 36.876 56.69 36.6626C56.4878 36.4492 56.3867 36.1346 56.3867 35.7303C56.3867 35.3259 56.4878 35.0226 56.69 34.8317C56.8922 34.6407 57.2179 34.5172 57.656 34.4835L58.9589 34.3599V34.0005C58.9589 33.7197 58.9028 33.5175 58.7792 33.3939C58.6557 33.2704 58.4872 33.2142 58.285 33.2142C57.8357 33.2142 57.3864 33.2367 56.9034 33.2928L56.6451 33.3153L56.6226 32.8435C57.2291 32.72 57.7683 32.6638 58.2401 32.6638C58.7118 32.6638 59.0488 32.7762 59.2622 32.9896C59.4756 33.203 59.588 33.54 59.588 34.0005ZM57.027 35.6966C57.027 36.202 57.2404 36.4604 57.656 36.4604C58.0379 36.4604 58.4085 36.393 58.768 36.2694L58.9589 36.202V34.8317L57.7234 34.944C57.4763 34.9665 57.2965 35.0339 57.1842 35.1574C57.0719 35.281 57.027 35.4607 57.027 35.6966Z" fill="#143651"/>
<path d="M61.4415 36.8985H60.8237V30.9341H61.4528V34.4611L62.1042 34.4274L63.2949 32.7425H64.0025L62.6434 34.652L64.0587 36.8985H63.351L62.1155 34.9665L61.464 34.989V36.8985H61.4415Z" fill="#143651"/>
<path d="M67.5181 36.3818L67.754 36.3593L67.7764 36.8535C67.1474 36.9434 66.6083 36.9883 66.159 36.9883C65.5637 36.9883 65.1368 36.8198 64.8897 36.4716C64.6426 36.1234 64.519 35.5843 64.519 34.8542C64.519 33.3939 65.1031 32.6638 66.2601 32.6638C66.8217 32.6638 67.2373 32.8211 67.5181 33.1356C67.7989 33.4501 67.9337 33.9443 67.9337 34.607L67.9 35.0788H65.1593C65.1593 35.5393 65.2379 35.8763 65.4064 36.101C65.5749 36.3256 65.8669 36.4379 66.2713 36.4379C66.6757 36.4379 67.0913 36.4155 67.5181 36.3818ZM67.2935 34.5846C67.2935 34.0791 67.2148 33.7197 67.0463 33.5063C66.8779 33.2928 66.6195 33.1917 66.2488 33.1917C65.8782 33.1917 65.6086 33.3041 65.4176 33.5287C65.2267 33.7534 65.1368 34.1016 65.1256 34.5958H67.2935V34.5846Z" fill="#143651"/>
<path d="M73.6509 34.0005V36.1234C73.6622 36.3256 73.8307 36.4491 74.1339 36.4941L74.1115 36.9883C73.6734 36.9883 73.3477 36.876 73.123 36.6513C72.6288 36.876 72.1233 36.9883 71.6291 36.9883C71.2472 36.9883 70.9552 36.876 70.753 36.6626C70.5508 36.4492 70.4497 36.1346 70.4497 35.7303C70.4497 35.3259 70.5508 35.0226 70.753 34.8317C70.9552 34.6407 71.2809 34.5172 71.719 34.4835L73.0219 34.3599V34.0005C73.0219 33.7197 72.9658 33.5175 72.8422 33.3939C72.7187 33.2704 72.5502 33.2142 72.348 33.2142C71.8987 33.2142 71.4494 33.2367 70.9664 33.2928L70.7081 33.3153L70.6856 32.8435C71.2921 32.72 71.8313 32.6638 72.3031 32.6638C72.7748 32.6638 73.1118 32.7762 73.3252 32.9896C73.5386 33.203 73.6509 33.54 73.6509 34.0005ZM71.09 35.6966C71.09 36.202 71.3034 36.4604 71.719 36.4604C72.1009 36.4604 72.4715 36.393 72.831 36.2694L73.0219 36.202V34.8317L71.7864 34.944C71.5393 34.9665 71.3595 35.0339 71.2472 35.1574C71.1349 35.281 71.09 35.4607 71.09 35.6966Z" fill="#143651"/>
<path d="M79.9073 30.9341V36.8985H79.2895V36.6177C78.8627 36.8648 78.4471 36.9884 78.0315 36.9884C77.8069 36.9884 77.6159 36.9547 77.4474 36.9097C77.2789 36.8648 77.1217 36.7525 76.9869 36.6065C76.6836 36.3032 76.5376 35.7528 76.5376 34.944C76.5376 34.1353 76.6724 33.5512 76.942 33.203C77.2115 32.8548 77.6608 32.6639 78.2786 32.6639C78.6044 32.6639 78.9413 32.6976 79.3008 32.7762V30.9341H79.9073ZM77.7395 36.3706C77.8406 36.4043 77.9641 36.4267 78.1214 36.4267C78.2786 36.4267 78.4583 36.4043 78.6493 36.3481C78.8403 36.2919 78.9975 36.247 79.1098 36.1908L79.2783 36.1122V33.2929C78.9189 33.2255 78.5931 33.1918 78.2899 33.1918C77.863 33.1918 77.571 33.3266 77.4137 33.5962C77.2452 33.8657 77.1666 34.2813 77.1666 34.843C77.1666 35.4832 77.2677 35.9213 77.4587 36.1347C77.5485 36.2583 77.6496 36.3369 77.7395 36.3706Z" fill="#143651"/>
<path d="M81.1094 31.8102V31.0913H81.7384V31.8102H81.1094ZM81.1094 36.8985V32.7425H81.7384V36.8985H81.1094Z" fill="#143651"/>
<path d="M83.7265 33.2929V36.9097H83.0975V33.2929H82.5696V32.7537H83.0975V32.3831C83.0975 31.799 83.1761 31.3946 83.3446 31.1812C83.5131 30.9678 83.8051 30.8667 84.2207 30.8667L85.0632 30.9229L85.0519 31.4395C84.7374 31.4283 84.4903 31.4283 84.2881 31.4283C84.086 31.4283 83.9399 31.4957 83.8613 31.6305C83.7827 31.7653 83.7378 32.0236 83.7378 32.4055V32.7762H84.9396V33.3154H83.7265V33.2929Z" fill="#143651"/>
<path d="M86.4785 33.2929V36.9097H85.8494V33.2929H85.3215V32.7537H85.8494V32.3831C85.8494 31.799 85.9281 31.3946 86.0966 31.1812C86.2651 30.9678 86.5571 30.8667 86.9727 30.8667L87.8151 30.9229L87.8039 31.4395C87.4894 31.4283 87.2423 31.4283 87.0401 31.4283C86.8379 31.4283 86.6919 31.4957 86.6133 31.6305C86.5346 31.7653 86.4897 32.0236 86.4897 32.4055V32.7762H87.6916V33.3154H86.4785V33.2929Z" fill="#143651"/>
<path d="M91.1848 36.3818L91.4207 36.3593L91.4432 36.8535C90.8142 36.9434 90.275 36.9883 89.8257 36.9883C89.2304 36.9883 88.8036 36.8198 88.5565 36.4716C88.3093 36.1234 88.1858 35.5843 88.1858 34.8542C88.1858 33.3939 88.7699 32.6638 89.9268 32.6638C90.4884 32.6638 90.904 32.8211 91.1848 33.1356C91.4657 33.4501 91.6004 33.9443 91.6004 34.607L91.5668 35.0788H88.826C88.826 35.5393 88.9047 35.8763 89.0732 36.101C89.2416 36.3256 89.5337 36.4379 89.938 36.4379C90.3424 36.4379 90.758 36.4155 91.1848 36.3818ZM90.9602 34.5846C90.9602 34.0791 90.8816 33.7197 90.7131 33.5063C90.5446 33.2928 90.2863 33.1917 89.9156 33.1917C89.5449 33.1917 89.2753 33.3041 89.0844 33.5287C88.8934 33.7534 88.8036 34.1016 88.7923 34.5958H90.9602V34.5846Z" fill="#143651"/>
<path d="M92.5552 36.8986V32.7426H93.173V33.3042C93.656 32.9672 94.1614 32.7538 94.6893 32.6527V33.2817C94.4535 33.3267 94.2176 33.3941 93.9592 33.4839C93.7009 33.5738 93.5099 33.6636 93.3864 33.731L93.173 33.8433V36.8986H92.5552Z" fill="#143651"/>
<path d="M98.1714 36.3818L98.4073 36.3593L98.4298 36.8535C97.8008 36.9434 97.2616 36.9883 96.8123 36.9883C96.217 36.9883 95.7901 36.8198 95.543 36.4716C95.2959 36.1234 95.1724 35.5843 95.1724 34.8542C95.1724 33.3939 95.7565 32.6638 96.9134 32.6638C97.475 32.6638 97.8906 32.8211 98.1714 33.1356C98.4522 33.4501 98.587 33.9443 98.587 34.607L98.5533 35.0788H95.8126C95.8126 35.5393 95.8912 35.8763 96.0597 36.101C96.2282 36.3256 96.5203 36.4379 96.9246 36.4379C97.329 36.4379 97.7446 36.4155 98.1714 36.3818ZM97.9468 34.5846C97.9468 34.0791 97.8681 33.7197 97.6997 33.5063C97.5312 33.2928 97.2728 33.1917 96.9022 33.1917C96.5315 33.1917 96.2619 33.3041 96.071 33.5287C95.88 33.7534 95.7901 34.1016 95.7789 34.5958H97.9468V34.5846Z" fill="#143651"/>
<path d="M100.171 36.8984H99.5417V32.7425H100.16V33.0345C100.609 32.7874 101.036 32.6638 101.451 32.6638C102.002 32.6638 102.384 32.8099 102.574 33.1131C102.765 33.4164 102.855 33.9443 102.855 34.7081V36.8984H102.238V34.7194C102.238 34.1465 102.181 33.7421 102.069 33.5399C101.957 33.3265 101.71 33.2142 101.339 33.2142C101.159 33.2142 100.979 33.2367 100.777 33.2928C100.575 33.349 100.429 33.3939 100.328 33.4501L100.171 33.5287V36.8984Z" fill="#143651"/>
<path d="M105.562 32.6638C105.742 32.6638 106.057 32.6975 106.495 32.7649L106.697 32.7874L106.674 33.2928C106.236 33.2479 105.899 33.2142 105.697 33.2142C105.225 33.2142 104.911 33.3265 104.742 33.5512C104.574 33.7758 104.484 34.1914 104.484 34.798C104.484 35.4045 104.563 35.8314 104.72 36.0672C104.877 36.3031 105.203 36.4267 105.708 36.4267L106.686 36.3481L106.708 36.8648C106.191 36.9434 105.809 36.9771 105.551 36.9771C104.9 36.9771 104.45 36.8086 104.203 36.4829C103.956 36.1459 103.833 35.5955 103.833 34.798C103.833 34.0005 103.967 33.4501 104.237 33.1356C104.495 32.8211 104.945 32.6638 105.562 32.6638Z" fill="#143651"/>
<path d="M110.415 36.3818L110.651 36.3593L110.662 36.8535C110.033 36.9434 109.494 36.9883 109.044 36.9883C108.449 36.9883 108.022 36.8198 107.775 36.4716C107.528 36.1234 107.405 35.5843 107.405 34.8542C107.405 33.3939 107.989 32.6638 109.146 32.6638C109.707 32.6638 110.123 32.8211 110.404 33.1356C110.684 33.4501 110.819 33.9443 110.819 34.607L110.785 35.0788H108.045C108.045 35.5393 108.123 35.8763 108.292 36.101C108.46 36.3256 108.752 36.4379 109.157 36.4379C109.561 36.4379 109.988 36.4155 110.415 36.3818ZM110.19 34.5846C110.19 34.0791 110.112 33.7197 109.943 33.5063C109.775 33.2928 109.516 33.1917 109.146 33.1917C108.775 33.1917 108.494 33.3041 108.314 33.5287C108.135 33.7534 108.034 34.1016 108.022 34.5958H110.19V34.5846Z" fill="#143651"/>
<path d="M111.74 36.8985V35.955H112.425V36.8985H111.74Z" fill="#143651"/>
<path d="M118.985 36.8086C118.412 36.9209 117.907 36.9883 117.446 36.9883C116.986 36.9883 116.626 36.9209 116.345 36.7974C116.065 36.6738 115.851 36.4829 115.694 36.2133C115.537 35.9437 115.436 35.6517 115.379 35.3035C115.323 34.9553 115.29 34.5397 115.29 34.023C115.29 33.5063 115.323 33.0907 115.379 32.7425C115.436 32.3943 115.548 32.091 115.694 31.8214C115.851 31.5518 116.065 31.3609 116.334 31.2373C116.604 31.1138 116.974 31.0576 117.412 31.0576C117.851 31.0576 118.378 31.1138 118.974 31.2373L118.951 31.7765C118.39 31.6754 117.895 31.6305 117.457 31.6305C116.851 31.6305 116.446 31.8102 116.244 32.1809C116.042 32.5403 115.952 33.1581 115.952 34.0342C115.952 34.4723 115.975 34.8205 116.008 35.0901C116.042 35.3596 116.11 35.5955 116.222 35.8089C116.323 36.0223 116.48 36.1796 116.682 36.2695C116.885 36.3593 117.177 36.4042 117.57 36.4042C117.963 36.4042 118.423 36.3593 118.951 36.2582L118.985 36.8086Z" fill="#143651"/>
<path d="M120.546 36.8985H119.929V30.9341H120.546V32.9784C120.985 32.765 121.411 32.6639 121.827 32.6639C122.377 32.6639 122.759 32.8099 122.95 33.1132C123.141 33.4165 123.242 33.9444 123.242 34.7082V36.8985H122.613V34.7194C122.613 34.1465 122.557 33.7422 122.445 33.54C122.332 33.3266 122.097 33.2143 121.726 33.2143C121.378 33.2143 121.041 33.2817 120.715 33.4052L120.558 33.4614V36.8985H120.546Z" fill="#143651"/>
<path d="M124.208 34.8204C124.208 34.0566 124.343 33.5175 124.612 33.1805C124.882 32.8435 125.342 32.675 125.994 32.675C126.634 32.675 127.095 32.8435 127.364 33.1805C127.634 33.5175 127.769 34.0679 127.769 34.8204C127.769 35.573 127.645 36.1346 127.387 36.4716C127.128 36.8198 126.668 36.9883 125.994 36.9883C125.32 36.9883 124.848 36.8198 124.601 36.4716C124.332 36.1234 124.208 35.573 124.208 34.8204ZM124.848 34.8092C124.848 35.4158 124.927 35.8426 125.073 36.0897C125.219 36.3368 125.533 36.4604 125.994 36.4604C126.466 36.4604 126.769 36.3368 126.915 36.1009C127.061 35.8651 127.128 35.4382 127.128 34.8204C127.128 34.2139 127.05 33.7871 126.893 33.5624C126.735 33.3378 126.432 33.2142 126.005 33.2142C125.567 33.2142 125.275 33.3265 125.107 33.5624C124.927 33.7758 124.848 34.1914 124.848 34.8092Z" fill="#143651"/>
<path d="M128.6 34.8204C128.6 34.0566 128.735 33.5175 129.004 33.1805C129.274 32.8435 129.735 32.675 130.375 32.675C131.026 32.675 131.476 32.8435 131.745 33.1805C132.015 33.5175 132.15 34.0679 132.15 34.8204C132.15 35.573 132.026 36.1346 131.768 36.4716C131.509 36.8198 131.049 36.9883 130.375 36.9883C129.701 36.9883 129.229 36.8198 128.982 36.4716C128.724 36.1234 128.6 35.573 128.6 34.8204ZM129.24 34.8092C129.24 35.4158 129.319 35.8426 129.465 36.0897C129.611 36.3368 129.914 36.4604 130.386 36.4604C130.858 36.4604 131.161 36.3368 131.307 36.1009C131.453 35.8651 131.521 35.4382 131.521 34.8204C131.521 34.2139 131.442 33.7871 131.285 33.5624C131.127 33.3378 130.824 33.2142 130.386 33.2142C129.948 33.2142 129.656 33.3265 129.487 33.5624C129.319 33.7758 129.24 34.1914 129.24 34.8092Z" fill="#143651"/>
<path d="M134.475 33.2254C133.868 33.2254 133.565 33.4389 133.565 33.8545C133.565 34.0454 133.632 34.1802 133.778 34.2701C133.913 34.3487 134.228 34.4385 134.722 34.5172C135.216 34.607 135.564 34.7193 135.766 34.8766C135.969 35.0338 136.07 35.3259 136.07 35.7527C136.07 36.1796 135.935 36.4941 135.654 36.6963C135.373 36.8984 134.98 36.9995 134.452 36.9995C134.104 36.9995 133.7 36.9546 133.239 36.8872L132.992 36.8423L133.026 36.3031C133.655 36.393 134.138 36.4491 134.452 36.4491C134.767 36.4491 135.014 36.393 135.182 36.2919C135.351 36.1908 135.441 36.0223 135.441 35.7752C135.441 35.5281 135.373 35.3708 135.227 35.281C135.081 35.1911 134.767 35.1125 134.284 35.0338C133.801 34.9552 133.452 34.8429 133.239 34.6969C133.037 34.5509 132.936 34.2701 132.936 33.8657C132.936 33.4613 133.082 33.158 133.363 32.9671C133.643 32.7761 134.003 32.675 134.43 32.675C134.767 32.675 135.193 32.72 135.699 32.7874L135.935 32.8323L135.912 33.3602C135.317 33.2704 134.823 33.2254 134.475 33.2254Z" fill="#143651"/>
<path d="M139.855 36.3818L140.091 36.3593L140.102 36.8535C139.473 36.9434 138.934 36.9883 138.485 36.9883C137.889 36.9883 137.463 36.8198 137.215 36.4716C136.968 36.1234 136.845 35.5843 136.845 34.8542C136.845 33.3939 137.429 32.6638 138.586 32.6638C139.147 32.6638 139.563 32.8211 139.844 33.1356C140.125 33.4501 140.259 33.9443 140.259 34.607L140.226 35.0788H137.485C137.485 35.5393 137.564 35.8763 137.732 36.101C137.901 36.3256 138.193 36.4379 138.597 36.4379C139.001 36.4379 139.428 36.4155 139.855 36.3818ZM139.63 34.5846C139.63 34.0791 139.552 33.7197 139.383 33.5063C139.215 33.2928 138.956 33.1917 138.586 33.1917C138.215 33.1917 137.946 33.3041 137.755 33.5287C137.564 33.7534 137.474 34.1016 137.463 34.5958H139.63V34.5846Z" fill="#143651"/>
<path d="M144.617 32.6638C144.797 32.6638 145.112 32.6975 145.55 32.7649L145.752 32.7874L145.73 33.2928C145.291 33.2479 144.954 33.2142 144.752 33.2142C144.281 33.2142 143.966 33.3265 143.798 33.5512C143.629 33.7758 143.539 34.1914 143.539 34.798C143.539 35.4045 143.618 35.8314 143.775 36.0672C143.932 36.3031 144.258 36.4267 144.764 36.4267L145.741 36.3481L145.763 36.8648C145.247 36.9434 144.865 36.9771 144.606 36.9771C143.955 36.9771 143.505 36.8086 143.27 36.4829C143.022 36.1459 142.899 35.5955 142.899 34.798C142.899 34.0005 143.034 33.4501 143.303 33.1356C143.55 32.8211 143.988 32.6638 144.617 32.6638Z" fill="#143651"/>
<path d="M149.279 32.7424H149.897V36.8984H149.279V36.6064C148.863 36.8535 148.448 36.9771 148.043 36.9771C147.482 36.9771 147.1 36.831 146.92 36.539C146.729 36.247 146.639 35.6966 146.639 34.9103V32.7424H147.257V34.8991C147.257 35.5056 147.313 35.91 147.414 36.1122C147.515 36.3143 147.762 36.4154 148.133 36.4154C148.313 36.4154 148.504 36.393 148.695 36.3368C148.886 36.2806 149.032 36.2357 149.122 36.1796L149.268 36.1009V32.7424H149.279Z" fill="#143651"/>
<path d="M152.402 33.2254C151.795 33.2254 151.492 33.4389 151.492 33.8545C151.492 34.0454 151.559 34.1802 151.705 34.2701C151.84 34.3487 152.155 34.4385 152.649 34.5172C153.143 34.607 153.491 34.7193 153.693 34.8766C153.896 35.0338 153.997 35.3259 153.997 35.7527C153.997 36.1796 153.862 36.4941 153.581 36.6963C153.3 36.8984 152.907 36.9995 152.379 36.9995C152.031 36.9995 151.627 36.9546 151.166 36.8872L150.919 36.8423L150.953 36.3031C151.582 36.393 152.065 36.4491 152.379 36.4491C152.694 36.4491 152.941 36.393 153.109 36.2919C153.278 36.1908 153.368 36.0223 153.368 35.7752C153.368 35.5281 153.3 35.3708 153.154 35.281C153.008 35.1911 152.694 35.1125 152.211 35.0338C151.728 34.9552 151.379 34.8429 151.166 34.6969C150.964 34.5509 150.863 34.2701 150.863 33.8657C150.863 33.4613 151.009 33.158 151.29 32.9671C151.57 32.7761 151.93 32.675 152.357 32.675C152.694 32.675 153.121 32.72 153.626 32.7874L153.862 32.8323L153.839 33.3602C153.244 33.2704 152.761 33.2254 152.402 33.2254Z" fill="#143651"/>
<path d="M157.119 33.2929H155.794V35.281C155.794 35.7528 155.827 36.0673 155.895 36.2246C155.962 36.3818 156.131 36.4492 156.389 36.4492L157.13 36.4043L157.175 36.921C156.805 36.9772 156.524 37.0109 156.333 37.0109C155.906 37.0109 155.603 36.9098 155.434 36.6963C155.266 36.4829 155.187 36.0898 155.187 35.4945V33.3041H154.592V32.765H155.187V31.4957H155.805V32.765H157.13V33.2929H157.119Z" fill="#143651"/>
<path d="M157.703 34.8204C157.703 34.0566 157.838 33.5175 158.107 33.1805C158.377 32.8435 158.838 32.675 159.478 32.675C160.129 32.675 160.579 32.8435 160.848 33.1805C161.118 33.5175 161.253 34.0679 161.253 34.8204C161.253 35.573 161.129 36.1346 160.871 36.4716C160.612 36.8198 160.152 36.9883 159.478 36.9883C158.804 36.9883 158.332 36.8198 158.085 36.4716C157.827 36.1234 157.703 35.573 157.703 34.8204ZM158.343 34.8092C158.343 35.4158 158.422 35.8426 158.568 36.0897C158.714 36.3368 159.017 36.4604 159.489 36.4604C159.961 36.4604 160.264 36.3368 160.41 36.1009C160.556 35.8651 160.624 35.4382 160.624 34.8204C160.624 34.2139 160.545 33.7871 160.388 33.5624C160.23 33.3378 159.927 33.2142 159.489 33.2142C159.051 33.2142 158.759 33.3265 158.59 33.5624C158.422 33.7758 158.343 34.1914 158.343 34.8092Z" fill="#143651"/>
<path d="M162.893 36.8984H162.275V32.7425H162.893V33.0345C163.308 32.7874 163.713 32.6638 164.106 32.6638C164.622 32.6638 164.982 32.8098 165.184 33.0907C165.364 32.9783 165.6 32.8772 165.892 32.7986C166.184 32.7088 166.442 32.6638 166.656 32.6638C167.206 32.6638 167.577 32.8099 167.779 33.1131C167.97 33.4052 168.06 33.9443 168.06 34.7081V36.8984H167.442V34.7194C167.442 34.1465 167.386 33.7421 167.273 33.5399C167.161 33.3265 166.925 33.2142 166.566 33.2142C166.386 33.2142 166.195 33.2367 166.004 33.2928C165.813 33.349 165.656 33.3939 165.555 33.4501L165.398 33.5287C165.465 33.7084 165.51 34.1128 165.51 34.7418V36.8984H164.892V34.753C164.892 34.1577 164.836 33.7534 164.735 33.5399C164.622 33.3265 164.387 33.2142 164.027 33.2142C163.847 33.2142 163.668 33.2367 163.488 33.2928C163.308 33.349 163.162 33.3939 163.061 33.4501L162.915 33.5287V36.8984H162.893Z" fill="#143651"/>
<path d="M169.217 31.8102V31.0913H169.834V31.8102H169.217ZM169.217 36.8985V32.7425H169.834V36.8985H169.217Z" fill="#143651"/>
<path d="M170.789 33.3041V32.7424H173.878V33.3041L171.553 36.348H173.878V36.9097H170.789V36.348L173.114 33.3041H170.789Z" fill="#143651"/>
<path d="M177.753 34.0005V36.1234C177.775 36.3256 177.933 36.4491 178.236 36.4941L178.214 36.9883C177.775 36.9883 177.45 36.876 177.225 36.6513C176.731 36.876 176.225 36.9883 175.731 36.9883C175.349 36.9883 175.057 36.876 174.855 36.6626C174.653 36.4492 174.552 36.1346 174.552 35.7303C174.552 35.3259 174.653 35.0226 174.855 34.8317C175.057 34.6407 175.383 34.5172 175.821 34.4835L177.124 34.3599V34.0005C177.124 33.7197 177.068 33.5175 176.944 33.3939C176.821 33.2704 176.652 33.2142 176.45 33.2142C176.012 33.2142 175.551 33.2367 175.068 33.2928L174.81 33.3153L174.788 32.8435C175.394 32.72 175.933 32.6638 176.405 32.6638C176.877 32.6638 177.214 32.7762 177.427 32.9896C177.652 33.203 177.753 33.54 177.753 34.0005ZM175.192 35.6966C175.192 36.202 175.405 36.4604 175.821 36.4604C176.203 36.4604 176.574 36.393 176.933 36.2694L177.124 36.202V34.8317L175.9 34.944C175.653 34.9665 175.473 35.0339 175.36 35.1574C175.248 35.281 175.192 35.4607 175.192 35.6966Z" fill="#143651"/>
<path d="M181.134 33.2929H179.809V35.281C179.809 35.7528 179.842 36.0673 179.91 36.2246C179.977 36.3818 180.146 36.4492 180.404 36.4492L181.145 36.4043L181.19 36.921C180.819 36.9772 180.539 37.0109 180.348 37.0109C179.921 37.0109 179.618 36.9098 179.449 36.6963C179.281 36.4829 179.202 36.0898 179.202 35.4945V33.3041H178.607V32.765H179.202V31.4957H179.82V32.765H181.145V33.2929H181.134Z" fill="#143651"/>
<path d="M181.898 31.8102V31.0913H182.516V31.8102H181.898ZM181.898 36.8985V32.7425H182.516V36.8985H181.898Z" fill="#143651"/>
<path d="M183.538 34.8204C183.538 34.0566 183.673 33.5175 183.942 33.1805C184.212 32.8435 184.672 32.675 185.313 32.675C185.964 32.675 186.413 32.8435 186.683 33.1805C186.952 33.5175 187.087 34.0679 187.087 34.8204C187.087 35.573 186.964 36.1346 186.705 36.4716C186.447 36.8198 185.986 36.9883 185.313 36.9883C184.639 36.9883 184.167 36.8198 183.92 36.4716C183.661 36.1234 183.538 35.573 183.538 34.8204ZM184.178 34.8092C184.178 35.4158 184.257 35.8426 184.403 36.0897C184.549 36.3368 184.852 36.4604 185.324 36.4604C185.796 36.4604 186.099 36.3368 186.245 36.1009C186.391 35.8651 186.458 35.4382 186.458 34.8204C186.458 34.2139 186.38 33.7871 186.222 33.5624C186.065 33.3378 185.762 33.2142 185.324 33.2142C184.886 33.2142 184.594 33.3265 184.425 33.5624C184.257 33.7758 184.178 34.1914 184.178 34.8092Z" fill="#143651"/>
<path d="M188.738 36.8984H188.121V32.7425H188.738V33.0345C189.188 32.7874 189.615 32.6638 190.03 32.6638C190.581 32.6638 190.962 32.8099 191.153 33.1131C191.344 33.4164 191.434 33.9443 191.434 34.7081V36.8984H190.816V34.7194C190.816 34.1465 190.76 33.7421 190.648 33.5399C190.536 33.3265 190.288 33.2142 189.918 33.2142C189.738 33.2142 189.558 33.2367 189.356 33.2928C189.154 33.349 189.008 33.3939 188.907 33.4501L188.75 33.5287V36.8984H188.738Z" fill="#143651"/>
<path d="M192.535 36.8985V35.955H193.22V36.8985H192.535Z" fill="#143651"/>
</svg>
