<svg width="100" height="100" viewBox="0 0 100 100" fill="none" xmlns="http://www.w3.org/2000/svg">
<rect width="100" height="100" rx="16" fill="white"/>
<rect x="17.8346" y="21.2101" width="54.0433" height="63.4421" rx="1.17485" fill="white" stroke="#252525" stroke-width="2.34971"/>
<rect x="24.8854" y="28.259" width="39.945" height="49.3439" rx="1.17485" fill="white" stroke="#252525" stroke-width="2.34971"/>
<path d="M54.2551 15.3357C55.5528 15.3357 56.6048 16.3877 56.6048 17.6855V29.434H33.1077V17.6855C33.1077 16.3878 34.1597 15.3357 35.4574 15.3357H37.8071L38.3393 14.9809C42.2857 12.3501 47.4269 12.3501 51.3732 14.9809L51.9054 15.3357H54.2551Z" fill="white"/>
<path fill-rule="evenodd" clip-rule="evenodd" d="M37.8071 15.3357H35.4574C34.1597 15.3357 33.1077 16.3878 33.1077 17.6855V29.434H56.6048V17.6855C56.6048 16.3877 55.5528 15.3357 54.2551 15.3357H51.9054L51.3732 14.9809C47.4269 12.3501 42.2857 12.3501 38.3393 14.9809L37.8071 15.3357ZM54.2551 27.0843V17.6855L51.194 17.6855L50.0698 16.936C46.9127 14.8313 42.7998 14.8313 39.6427 16.936L38.5186 17.6855H35.4574L35.4574 27.0843H54.2551Z" fill="#252525"/>
<path d="M30.7567 38.8329C30.7567 37.5352 31.8087 36.4832 33.1064 36.4832H42.5053V50.5815H30.7567V38.8329Z" fill="white"/>
<path fill-rule="evenodd" clip-rule="evenodd" d="M40.1555 38.8329H33.1064V48.2318H40.1555V38.8329ZM33.1064 36.4832C31.8087 36.4832 30.7567 37.5352 30.7567 38.8329V50.5815H42.5053V36.4832H33.1064Z" fill="#143651"/>
<path d="M44.8538 48.2317H58.952V59.9802C58.952 61.2779 57.9 62.3299 56.6023 62.3299H44.8538V48.2317Z" fill="white"/>
<path fill-rule="evenodd" clip-rule="evenodd" d="M56.6023 50.5814H47.2035V59.9802H56.6023V50.5814ZM44.8538 48.2317V62.3299H56.6023C57.9 62.3299 58.952 61.2779 58.952 59.9802V48.2317H44.8538Z" fill="#143651"/>
<path d="M30.7568 59.9802H54.2539V67.0293C54.2539 68.327 53.2019 69.379 51.9041 69.379H33.1065C31.8088 69.379 30.7568 68.327 30.7568 67.0293V59.9802Z" fill="white"/>
<path fill-rule="evenodd" clip-rule="evenodd" d="M51.9041 62.3299H33.1065L33.1065 67.0293L51.9041 67.0293V62.3299ZM30.7568 59.9802V67.0293C30.7568 68.327 31.8088 69.379 33.1065 69.379H51.9041C53.2019 69.379 54.2539 68.327 54.2539 67.0293V59.9802H30.7568Z" fill="#143651"/>
<path d="M40.154 36.4832H56.6019C57.8997 36.4832 58.9517 37.5352 58.9517 38.8329V50.5814H40.154V36.4832Z" fill="white"/>
<path fill-rule="evenodd" clip-rule="evenodd" d="M56.6019 38.8329H42.5037V48.2317H56.6019L56.6019 38.8329ZM40.154 36.4832V50.5814H58.9517V38.8329C58.9517 37.5352 57.8997 36.4832 56.6019 36.4832H40.154Z" fill="#143651"/>
<path d="M30.7568 48.2317H47.2047V62.3299H30.7568V48.2317Z" fill="white"/>
<path fill-rule="evenodd" clip-rule="evenodd" d="M44.855 50.5814H33.1065V59.9802H44.855V50.5814ZM30.7568 48.2317V62.3299H47.2047V48.2317H30.7568Z" fill="#143651"/>
<path fill-rule="evenodd" clip-rule="evenodd" d="M78.9579 84.6052L84.0017 74.5177L84.0017 45.482C84.0017 39.2143 78.9207 34.1333 72.653 34.1333C66.3853 34.1333 61.3043 39.2143 61.3043 45.482L61.3043 74.5177L66.3481 84.6052C68.9458 89.8007 76.3602 89.8007 78.9579 84.6052ZM74.7546 82.5035C73.8887 84.2354 71.4173 84.2354 70.5513 82.5035L66.0037 73.4083L66.0037 45.482C66.0037 41.8097 68.9807 38.8327 72.653 38.8327C76.3253 38.8327 79.3022 41.8097 79.3022 45.482L79.3022 73.4083L74.7546 82.5035Z" fill="white"/>
<path d="M70.5513 82.5035C71.4173 84.2354 73.8887 84.2354 74.7546 82.5035L79.3022 73.4083L79.3022 45.482C79.3022 41.8097 76.3253 38.8327 72.653 38.8327C68.9807 38.8327 66.0037 41.8097 66.0037 45.482L66.0037 73.4083L70.5513 82.5035Z" fill="white"/>
<path fill-rule="evenodd" clip-rule="evenodd" d="M66.0049 45.4825C66.0049 41.8102 68.9819 38.8333 72.6542 38.8333C76.3265 38.8333 79.3034 41.8102 79.3034 45.4825L79.3035 73.4089L74.7558 82.5041C73.8899 84.236 71.4185 84.236 70.5526 82.5041L66.0049 73.4089L66.0049 45.4825ZM68.3547 72.234H71.48L71.48 52.1318H68.3547L68.3547 72.234ZM73.8297 52.1318H76.9537L76.9537 72.234H73.8297L73.8297 52.1318ZM76.9537 49.4716V45.4825C76.9537 43.1079 75.0288 41.183 72.6542 41.183C70.2796 41.183 68.3547 43.1079 68.3547 45.4825L68.3547 49.4716H76.9537ZM69.2194 74.5837L72.6542 81.4533L76.089 74.5837H69.2194Z" fill="#143651"/>
</svg>
