<svg width="100" height="100" viewBox="0 0 100 100" fill="none" xmlns="http://www.w3.org/2000/svg">
<rect width="100" height="100" rx="16" fill="white"/>
<path fill-rule="evenodd" clip-rule="evenodd" d="M42.8515 32.0897C42.8131 32.2255 42.7789 32.577 42.7603 32.7683C42.7579 32.7929 42.7557 32.8148 42.7539 32.8334C42.7539 34.0359 41.2985 34.6368 40.4481 33.7865C39.3685 32.7018 37.6052 32.7018 36.5202 33.7865L32.5922 37.7148C32.0497 38.2587 31.7784 38.9718 31.7784 39.6845C31.7784 40.1179 31.8815 40.5509 32.0822 40.9456C32.2124 41.1969 32.3806 41.4325 32.5922 41.6431C33.4402 42.4914 32.8423 43.9445 31.6428 43.9445C30.1074 43.9445 28.865 45.1882 28.865 46.7222V52.2778C28.865 53.8118 30.1074 55.0556 31.6428 55.0556C32.8422 55.0556 33.4402 56.5084 32.5922 57.3566C31.5071 58.4413 31.5071 60.2002 32.5922 61.2849L36.5202 65.2132C37.6052 66.2982 39.363 66.2982 40.4481 65.2132C41.2986 64.3628 42.7539 64.964 42.7539 66.1667C42.7539 67.0307 43.1499 67.8028 43.7684 68.3121C44.2459 68.7071 44.8589 68.9445 45.5317 68.9445H51.0872C52.6226 68.9445 53.865 67.7007 53.865 66.1667C53.865 64.9662 55.3164 64.3647 56.1653 65.2135C57.2504 66.2983 59.0082 66.2983 60.0933 65.2135L64.0212 61.2852C64.8405 60.4657 65.0412 59.2619 64.6235 58.2545C64.4878 57.928 64.2871 57.6221 64.0212 57.3566C63.1722 56.5074 63.7753 55.0556 64.9761 55.0556C66.5115 55.0556 67.7539 53.8118 67.7539 52.2778V46.7222C67.7539 46.2353 67.6291 45.7779 67.4121 45.3798C67.2656 45.1191 67.0811 44.8837 66.8641 44.683C66.365 44.2245 65.7031 43.9445 64.9761 43.9445C63.7751 43.9445 63.1722 42.4925 64.0212 41.6431C65.1009 40.5584 65.1009 38.7995 64.0212 37.7148L60.0879 33.7862C59.0028 32.7014 57.245 32.7014 56.1599 33.7862C55.3131 34.6331 53.865 34.031 53.865 32.8334C53.865 31.2993 52.6226 30.0556 51.0872 30.0556H45.5317C44.2567 30.0556 43.1771 30.9168 42.8515 32.0897ZM62.0524 39.6744L58.124 35.7507C55.52 38.3544 51.0872 36.4953 51.0872 32.8334H45.5456C45.5417 32.8699 45.5378 32.9079 45.5339 32.9463L45.5286 33.0007C45.3962 36.5741 41.0387 38.305 38.4841 35.7509C38.4841 35.7509 38.4842 35.7509 38.4841 35.7509L34.5588 39.6765C34.5587 39.6766 34.5589 39.6764 34.5588 39.6765C34.5581 39.6773 34.5572 39.6783 34.5568 39.6787C34.5567 39.6789 34.5568 39.6786 34.5568 39.6787C37.1412 42.2643 35.3348 46.7222 31.6428 46.7222V52.2778C35.3338 52.2778 37.1421 56.7343 34.5567 59.3205L38.4841 63.2488C41.0791 60.6543 45.5305 62.4816 45.5317 66.1653C45.5321 66.1658 45.5325 66.1662 45.533 66.1667H51.0872C51.0872 62.4927 55.5296 60.65 58.1292 63.249L62.0566 59.3214C62.0568 59.3213 62.0565 59.3216 62.0566 59.3214C59.4533 56.7174 61.3076 52.2778 64.9761 52.2778V46.7222C61.3082 46.7222 59.456 42.2871 62.0529 39.6831C62.0531 39.6821 62.0532 39.6807 62.0532 39.679C62.0532 39.6772 62.0526 39.6754 62.0524 39.6744C62.0523 39.6742 62.0526 39.6745 62.0524 39.6744ZM38.4853 35.7496C38.4839 35.7489 38.4824 35.748 38.4808 35.747C38.4809 35.747 38.4808 35.747 38.4808 35.747L38.4796 35.7458L36.5202 33.7865L38.4841 35.7509C38.4838 35.7511 38.4829 35.7508 38.4827 35.751C38.4827 35.751 38.4823 35.7511 38.4827 35.751C38.4829 35.7508 38.4838 35.7511 38.4841 35.7509M56.6428 49.5C56.6428 54.1024 52.9118 57.8334 48.3094 57.8334C43.7071 57.8334 39.9761 54.1024 39.9761 49.5C39.9761 44.8976 43.7071 41.1667 48.3094 41.1667C52.9118 41.1667 56.6428 44.8976 56.6428 49.5ZM53.865 49.5C53.865 52.5683 51.3777 55.0556 48.3094 55.0556C45.2412 55.0556 42.7539 52.5683 42.7539 49.5C42.7539 46.4318 45.2412 43.9445 48.3094 43.9445C51.3777 43.9445 53.865 46.4318 53.865 49.5Z" fill="#143651"/>
<path fill-rule="evenodd" clip-rule="evenodd" d="M48.3094 13.3889C28.3679 13.3889 12.1983 29.5565 12.1983 49.5C12.1983 69.4435 28.3679 85.6111 48.3094 85.6111C49.0765 85.6111 49.6983 86.2329 49.6983 87C49.6983 87.7671 49.0765 88.3889 48.3094 88.3889C26.8339 88.3889 9.42053 70.9777 9.42053 49.5C9.42053 28.0223 26.8339 10.6111 48.3094 10.6111C67.5916 10.6111 83.5976 24.6458 86.6681 43.0578C86.6919 43.2005 86.7999 43.2733 86.8839 43.2795C89.1723 43.4489 90.4192 46.032 89.1283 47.9291L81.6571 58.9083C81.378 59.3186 80.9012 59.5487 80.4063 59.5121C79.9115 59.4755 79.4738 59.1776 79.2581 58.7308L73.1329 46.0415C72.3514 44.4225 73.471 42.5815 75.1815 42.444C72.0583 30.519 61.2088 21.7222 48.3094 21.7222C32.9686 21.7222 20.5316 34.1589 20.5316 49.5C20.5316 64.8411 32.9686 77.2778 48.3094 77.2778C54.3619 77.2778 59.9502 75.3475 64.5126 72.0675C65.1354 71.6197 66.0033 71.7617 66.451 72.3845C66.8988 73.0073 66.7569 73.8752 66.134 74.3229C61.1152 77.9311 54.9631 80.0555 48.3094 80.0555C31.4345 80.0555 17.7539 66.3753 17.7539 49.5C17.7539 32.6247 31.4345 18.9444 48.3094 18.9444C62.6571 18.9444 74.6921 28.8349 77.9776 42.1687C78.3552 43.7013 77.2425 45.0623 75.8147 45.2074L80.7139 55.3568L86.8317 46.3663C86.9196 46.2372 86.8347 46.0613 86.6789 46.0497C85.2579 45.9446 84.1527 44.8607 83.9282 43.5148C81.0773 26.4201 66.2117 13.3889 48.3094 13.3889Z" fill="#252525"/>
</svg>
